# AST/ASF file generated using VICON BodyLanguage
# -----------------------------------------------
:version 1.10
:name VICON
:units
  mass 1.0
  length 0.45
  angle deg
:documentation
   .ast/.asf automatically generated from VICON data using
   VICON BodyBuilder and BodyLanguage model FoxedUp or BRILLIANT.MOD
:root
   order TX TY TZ RX RY RZ
   axis XYZ
   position 0 0 0  
   orientation 0 0 0 
:bonedata
  begin
     id 1 
     name lhipjoint
     direction 0.62366 -0.717238 0.310833 
     length 2.53602 
     axis 0 0 0  XYZ
  end
  begin
     id 2 
     name lfemur
     direction 0.34202 -0.939693 0  
     length 7.40817  
     axis 0 0 20  XYZ
    dof rx ry rz
    limits (-160.0 20.0)
           (-70.0 70.0)
           (-60.0 70.0)
  end
  begin
     id 3 
     name ltibia
     direction 0.34202 -0.939693 0   
     length 7.7045   
     axis 0 0 20   XYZ
    dof rx
    limits (-10.0 170.0)
  end
  begin
     id 4 
     name lfoot
     direction 0.0673888 -0.185149 0.980397   
     length 2.09456   
     axis -90 7.62852e-016 20   XYZ
    dof rx rz
    limits (-45.0 90.0)
           (-70.0 20.0)
  end
  begin
     id 5 
     name ltoes
     direction 1.53575e-011 -4.21994e-011 1   
     length 1.05543   
     axis -90 7.62852e-016 20   XYZ
    dof rx
    limits (-90.0 20.0)
  end
  begin
     id 6 
     name rhipjoint
     direction -0.489018 -0.800347 0.346851   
     length 2.27268  
     axis 0 0 0  XYZ 
  end
  begin
     id 7 
     name rfemur
     direction -0.34202 -0.939693 0   
     length 7.55487   
     axis 0 0 -20   XYZ
    dof rx ry rz
    limits (-160.0 20.0)
           (-70.0 70.0)
           (-70.0 60.0)
  end
  begin
     id 8 
     name rtibia
     direction -0.34202 -0.939693 0   
     length 7.78969   
     axis 0 0 -20   XYZ
    dof rx
    limits (-10.0 170.0)
 end
 begin
     id 9 
     name rfoot
     direction -0.0859318 -0.236096 0.967923   
     length 2.19143  
     axis -90 -7.62852e-016 -20   XYZ
    dof rx rz
    limits (-45.0 90.0)
           (-20.0 70.0)
  end
  begin
     id 10 
     name rtoes
     direction -1.53538e-011 -4.21989e-011 1   
     length 1.09845   
     axis -90 -7.62852e-016 -20   XYZ
    dof rx
    limits (-90.0 20.0)
  end
  begin
     id 11 
     name lowerback
     direction -0.00762546 0.998978 -0.0445553   
     length 1.98161   
     axis 0 0 0   XYZ
    dof rx ry rz
    limits (-20.0 45.0)
           (-30.0 30.0)
           (-30.0 30.0)
  end
  begin
     id 12 
     name upperback
     direction 0.0422361 0.998867 -0.0219156   
     length 1.97558   
     axis 0 0 0   XYZ
    dof rx ry rz
    limits (-20.0 45.0)
           (-30.0 30.0)
           (-30.0 30.0)
  end
  begin
     id 13 
     name thorax
     direction 0.0442465 0.999021 7.47603e-005   
     length 1.97799   
     axis 0 0 0   XYZ
    dof rx ry rz
    limits (-20.0 45.0)
           (-30.0 30.0)
           (-30.0 30.0)
  end
  begin
     id 14 
     name lowerneck
     direction 0.00312169 0.984641 0.174564   
     length 1.78995   
     axis 0 0 0   XYZ
    dof rx ry rz
    limits (-20.0 45.0)
           (-30.0 30.0)
           (-30.0 30.0)
  end
  begin
     id 15 
     name upperneck
     direction -0.0383028 0.985255 -0.166749   
     length 1.83053   
     axis 0 0 0   XYZ
    dof rx ry rz
    limits (-20.0 45.0)
           (-30.0 30.0)
           (-30.0 30.0)
  end
  begin
     id 16
     name head
     direction -0.0129546 0.997059 -0.0755386  
     length 1.84088  
     axis 0 0 0   XYZ
    dof rx ry rz
    limits (-20.0 45.0)
           (-30.0 30.0)
           (-30.0 30.0)
  end
  begin
     id 17 
     name lclavicle
     direction 0.912857 0.370519 -0.171488  
     length 3.51279  
     axis 0 0 0   XYZ
    dof ry rz
    limits (-20.0 10.0)
           (0.0 20.0)
  end
  begin
     id 18 
     name lhumerus
     direction 1 -4.48962e-011 3.64361e-027   
     length 4.95663   
     axis 180 -30 -90   XYZ
    dof rx ry rz
    limits (-60.0 90.0)
           (-90.0 90.0)
           (-90.0 90.0)
  end
  begin
     id 19
     name lradius
     direction 1 -4.48974e-011 5.97202e-027   
     length 3.38177   
     axis 180 -30 -90   XYZ
    dof rx
    limits (-10.0 170.0)
  end
  begin
     id 20
     name lwrist
     direction 1 -4.4896e-011 9.83288e-027   
     length 1.69088   
     axis -9.31221e-015 90 90   XYZ
    dof ry
    limits (-180.0 0.0)
 end
  begin
     id 21 
     name lhand
     direction 1 -4.4902e-011 1.96551e-026   
     length 0.662909   
     axis -1.25475e-014 90 90   XYZ
    dof rx rz
    limits (-90.0 90.0)
           (-45.0 45.0)
  end
  begin
     id 22 
     name lfingers
     direction 1 -4.48971e-011 3.93277e-026   
     length 0.534454   
     axis -2.50945e-014 90 90   XYZ
    dof rx
    limits (0.0 90.0)
  end
  begin
     id 23
     name lthumb
     direction 0.707107 -6.34933e-011 0.707107   
     length 0.767373   
     axis -90 45 -4.80359e-014   XYZ
    dof rx rz
    limits (-45.0 45.0)
           (-45.0 45.0)
  end
  begin
     id 24 
     name rclavicle
     direction -0.900919 0.395364 -0.178976   
     length 3.40627  
     axis 0 0 0   XYZ 
    dof ry rz
    limits (-10.0 20.0)
           (-20.0 0.0)
  end
  begin
     id 25 
     name rhumerus
     direction -1 -4.48969e-011 1.03875e-027  
     length 5.08365   
     axis 180 30 90   XYZ
    dof rx ry rz
    limits (-90.0 60.0)
           (-90.0 90.0)
           (-90.0 90.0)
  end
  begin
     id 26 
     name rradius
     direction -1 -4.48951e-011 5.02733e-027   
     length 3.35984   
     axis 180 30 90   XYZ
    dof rx
    limits (-10.0 170.0)
  end
  begin
     id 27 
     name rwrist
     direction -1 -4.49011e-011 9.82828e-027   
     length 1.67992   
     axis -9.31221e-015 -90 -90   XYZ
    dof ry
    limits (-180.0 0.0)
  end
  begin
     id 28
     name rhand
     direction -1 -4.48894e-011 1.96774e-026   
     length 0.820764   
     axis -1.25475e-014 -90 -90   XYZ
    dof rx rz
    limits (-90.0 90.0)
           (-45.0 45.0)
  end
  begin
     id 29
     name rfingers
     direction -1 -4.49095e-011 3.92833e-026   
     length 0.661721   
     axis -2.50945e-014 -90 -90   XYZ
    dof rx
    limits (0.0 90.0)
  end
  begin
     id 30
     name rthumb
     direction -0.707107 -6.34881e-011 0.707107   
     length 0.950103   
     axis -90 -45 4.80359e-014   XYZ
    dof rx rz
    limits (-45.0 45.0)
           (-45.0 45.0)
  end
:hierarchy
  begin
    root lhipjoint rhipjoint lowerback
    lhipjoint lfemur
    lfemur ltibia
    ltibia lfoot
    lfoot ltoes
    rhipjoint rfemur
    rfemur rtibia
    rtibia rfoot
    rfoot rtoes
    lowerback upperback
    upperback thorax
    thorax lowerneck lclavicle rclavicle
    lowerneck upperneck
    upperneck head
    lclavicle lhumerus
    lhumerus lradius
    lradius lwrist
    lwrist lhand lthumb
    lhand lfingers
    rclavicle rhumerus
    rhumerus rradius
    rradius rwrist
    rwrist rhand rthumb
    rhand rfingers
  end

#!OML:ASF I:\golf\golf\golf 2\Subject 1\2002-09-07\Subject1.ASF
:FULLY-SPECIFIED
:DEGREES
1
root -7.07499 17.6369 2.06652 -49.0015 87.4104 -64.9802
lowerback 1.5382 1.57664 -2.43139
upperback 1.82482 2.11989 3.84945
thorax 0.781128 1.03816 5.3215
lowerneck -13.7594 -1.97803 1.49742
upperneck 41.593 0.439012 -3.90322
head 17.6942 0.556606 -1.78219
rclavicle -1.03368e-014 -5.56597e-015
rhumerus -5.6373 -0.74787 -102.226
rradius 18.6957
rwrist -32.5051
rhand -15.1528 -8.85509
rfingers 7.12502
rthumb 11.0174 -38.546
lclavicle -1.03368e-014 -5.56597e-015
lhumerus -11.4894 -40.4781 110.789
lradius 25.8192
lwrist 44.2728
lhand -12.282 66.3079
lfingers 7.12502
lthumb -166.215 84.1689
rfemur -31.119 -2.51924 10.1667
rtibia 32.5712
rfoot -10.7953 -7.50443
rtoes -10.1585
lfemur -28.9579 8.25171 -8.68983
ltibia 31.6405
lfoot -13.5057 -2.06266
ltoes -24.6074
2
root -7.07541 17.6365 2.06379 -48.982 87.4338 -64.9311
lowerback 1.58515 1.56748 -2.45385
upperback 1.82907 2.10711 3.84854
thorax 0.759871 1.03192 5.33217
lowerneck -13.7359 -1.99077 1.42167
upperneck 41.5526 0.42606 -3.87397
head 17.6642 0.541781 -1.75616
rclavicle 9.54166e-015 2.78299e-014
rhumerus -5.66072 -0.546576 -102.243
rradius 18.7049
rwrist -32.578
rhand -15.3901 -8.80432
rfingers 7.12502
rthumb 10.7885 -38.5073
lclavicle 9.54166e-015 2.78299e-014
lhumerus -11.4757 -40.3991 110.786
lradius 25.8162
lwrist 44.3249
lhand -12.399 66.1573
lfingers 7.12502
lthumb -166.327 84.3118
rfemur -31.0954 -2.53828 10.1289
rtibia 32.5909
rfoot -10.854 -7.44877
rtoes -9.82451
lfemur -28.9189 8.26182 -8.72662
ltibia 31.7262
lfoot -13.294 -2.22132
ltoes -22.4592
3
root -7.07569 17.6361 2.06097 -48.2296 87.5036 -64.1657
lowerback 1.60105 1.55337 -2.52938
upperback 1.83796 2.08666 3.82511
thorax 0.76069 1.02047 5.35073
lowerneck -13.747 -2.0087 1.32336
upperneck 41.5544 0.394449 -3.79188
head 17.6672 0.523777 -1.70634
rclavicle -1.31198e-014 -4.77083e-014
rhumerus -5.62836 -0.567424 -102.28
rradius 18.6519
rwrist -32.6166
rhand -15.5035 -8.71912
rfingers 7.12502
rthumb 10.6791 -38.4277
lclavicle -1.31198e-014 -4.77083e-014
lhumerus -11.4714 -40.3185 110.763
lradius 25.7803
lwrist 44.1931
lhand -12.4641 66.2833
lfingers 7.12502
lthumb -166.39 84.1816
rfemur -31.0783 -2.61553 10.0443
rtibia 32.5916
rfoot -10.8855 -7.39055
rtoes -9.82335
lfemur -28.9277 8.24109 -8.81271
ltibia 31.7781
lfoot -13.3365 -2.29005
ltoes -22.2333
4
root -7.07614 17.6368 2.05929 -49.5516 87.4181 -65.5178
lowerback 1.57088 1.54339 -2.43584
upperback 1.84036 2.07534 3.86006
thorax 0.783213 1.01558 5.3352
lowerneck -13.7641 -2.00352 1.25025
upperneck 41.564 0.408428 -3.74727
head 17.6786 0.523579 -1.67036
rclavicle -7.15625e-015 7.95139e-015
rhumerus -5.6372 -0.39718 -102.303
rradius 18.677
rwrist -32.8361
rhand -15.6548 -8.63297
rfingers 7.12502
rthumb 10.5331 -38.349
lclavicle -7.15625e-015 7.95139e-015
lhumerus -11.4034 -40.1978 110.735
lradius 25.708
lwrist 44.029
lhand -12.3975 66.3966
lfingers 7.12502
lthumb -166.326 84.0726
rfemur -31.1251 -2.65899 10.1923
rtibia 32.5942
rfoot -10.8829 -7.41846
rtoes -9.80566
lfemur -28.9901 8.29399 -8.70547
ltibia 31.8299
lfoot -13.3367 -2.34795
ltoes -22.5068
5
root -7.07635 17.6369 2.05749 -51.9504 87.2975 -67.9274
lowerback 1.55507 1.53404 -2.27882
upperback 1.84612 2.06575 3.9056
thorax 0.80266 1.01249 5.29417
lowerneck -13.7615 -1.97917 1.2425
upperneck 41.5569 0.438559 -3.72475
head 17.6752 0.537243 -1.6529
rclavicle -2.38542e-015 1.51076e-014
rhumerus -5.72152 0.0932202 -102.287
rradius 18.8608
rwrist -33.3979
rhand -15.7786 -8.71568
rfingers 7.12502
rthumb 10.4137 -38.4378
lclavicle -2.38542e-015 1.51076e-014
lhumerus -11.36 -40.2148 110.704
lradius 25.6659
lwrist 44.0832
lhand -12.4396 66.491
lfingers 7.12502
lthumb -166.367 83.9755
rfemur -31.1455 -2.71896 10.4103
rtibia 32.5918
rfoot -10.964 -7.39547
rtoes -8.09323
lfemur -29.0421 8.30801 -8.54049
ltibia 31.8669
lfoot -13.3183 -2.32207
ltoes -23.0783
